<?xml version="1.0" encoding="utf-8"?>
<svg xmlns="http://www.w3.org/2000/svg" xmlns:svg="http://www.w3.org/2000/svg" version="1.1" viewBox="0 0 1400 340">
	<title>The titlepage for the Standard Ebooks edition of Mabel Vaughan, by Maria S. Cummins</title>
	<g aria-label="MABEL VAUGHAN">
		<path d="m 311.61257,130 h 17.59064 L 322.27923,52.807016 H 303.56578 L 286.44298,97.345029 269.32017,52.807016 H 250.60672 L 243.68274,130 h 17.59064 l 3.64913,-45.754387 h 0.46783 l 15.81287,45.286547 h 10.47953 l 15.81287,-45.286547 h 0.46783 z"/>
		<path d="m 380.45467,52.807016 h -16.2807 L 333.01608,130 h 18.90058 l 5.7076,-15.4386 h 29.38012 L 392.71198,130 h 18.90059 z m 0.56141,46.31579 h -17.40351 l 8.60819,-22.45614 h 0.18713 z"/>
		<path d="M 419.53215,52.807016 V 130 h 29.28655 c 16,0 25.26316,-8.79532 25.26316,-21.52047 0,-12.444443 -6.83041,-17.777776 -16.46784,-19.461987 6.54971,-3.368421 9.63743,-9.450292 9.63743,-16.561404 0,-14.690058 -10.47953,-19.649123 -23.76608,-19.649123 z M 437.1228,83.029239 V 66.374268 h 1.4035 c 7.67252,0 11.69591,2.339181 11.69591,7.859649 0,6.456141 -4.11696,8.795322 -11.69591,8.795322 z m 0,33.403511 V 98.187134 h 5.52046 c 8.32749,0 12.91228,2.526316 12.91228,9.637426 0,6.08187 -4.58479,8.60819 -12.91228,8.60819 z"/>
		<path d="M 531.01316,52.807016 H 486.84941 V 130 h 44.16375 v -15.4386 h -26.5731 V 99.029239 h 25.45029 V 83.590642 H 504.44006 V 68.245613 h 26.5731 z"/>
		<path d="M 563.71636,52.807016 H 546.12572 V 130 h 44.16374 v -15.4386 h -26.5731 z"/>
		<path d="m 650.62426,130 h 13.84795 L 696.84648,52.807016 H 677.01022 L 657.54823,103.52047 638.08624,52.807016 h -19.83625 z"/>
		<path d="M 735.38158,52.807016 H 719.10087 L 687.94298,130 h 18.90058 l 5.70761,-15.4386 h 29.38011 L 747.63889,130 h 18.90058 z m 0.5614,46.31579 h -17.40351 l 8.60819,-22.45614 h 0.18713 z"/>
		<path d="m 833.7807,52.807016 h -17.59064 v 44.63158 c 0,12.912284 -3.92983,16.654974 -12.53801,16.654974 -8.60819,0 -12.53802,-3.74269 -12.53802,-16.654974 v -44.63158 h -17.59064 v 49.777774 c 0,19.08772 10.47953,28.81872 30.12866,28.81872 19.64912,0 30.12865,-9.731 30.12865,-28.81872 z"/>
		<path d="m 918.88743,86.771929 h -35.64912 v 13.567251 h 17.77778 c 0,9.45029 -8.32749,14.87719 -16.74854,14.87719 -10.8538,0 -19.64913,-10.66666 -19.64913,-23.766078 0,-13.380117 8.79533,-24.140352 19.64913,-24.140352 6.83041,0 12.72514,2.713451 17.21637,9.918129 L 912.99269,64.59649 c -6.73684,-8.140351 -16.18713,-13.192983 -29.75438,-13.192983 -21.70761,0 -37.61404,17.871346 -37.61404,40.046785 0,22.081868 16.84211,39.953218 37.61404,39.953218 15.15789,0 31.43859,-8.32749 35.64912,-27.88304 z"/>
		<path d="m 949.16232,99.029239 h 24.88889 V 130 h 17.59064 V 52.807016 H 974.05121 V 83.590642 H 949.16232 V 52.807016 H 931.57167 V 130 h 17.59065 z"/>
		<path d="m 1047.0483,52.807016 h -16.2807 L 999.60967,130 h 18.90063 l 5.7076,-15.4386 h 29.3801 L 1059.3056,130 h 18.9006 z m 0.5614,46.31579 h -17.4035 l 8.6081,-22.45614 h 0.1872 z"/>
		<path d="m 1103.7164,82.093566 h 0.1871 L 1134.5936,130 h 17.5906 V 52.807016 h -17.5906 v 47.906434 h -0.1871 l -30.6901,-47.906434 h -17.5907 V 130 h 17.5907 z"/>
	</g>
	<g aria-label="MARIA S. CUMMINS">
		<path d="m 355.60636,290 h 13.19298 l -5.19298,-57.89474 h -14.03509 l -12.8421,33.40351 -12.84211,-33.40351 H 309.85198 L 304.65899,290 h 13.19299 l 2.73684,-34.31579 h 0.35088 l 11.85965,33.96491 h 7.85964 l 11.85965,-33.96491 h 0.35088 z"/>
		<path d="M 408.48794,232.10526 H 396.27741 L 372.90899,290 h 14.17544 l 4.2807,-11.57895 h 22.03509 L 417.68092,290 h 14.17544 z m 0.42105,34.73685 H 395.85636 L 402.3125,250 h 0.14035 z"/>
		<path d="M 439.04606,232.10526 V 290 h 13.19298 V 267.12281 L 469.92325,290 h 16.77193 l -19.92982,-23.92982 c 7.08772,-2.24562 11.85965,-8.07018 11.85965,-16.77193 0,-11.36842 -8.14035,-17.19299 -18.87719,-17.19299 z m 13.19298,25.68421 v -15.15789 h 1.54386 c 4.98246,0 10.94737,0.35088 10.94737,7.57895 0,7.22807 -5.96491,7.57894 -10.94737,7.57894 z"/>
		<path d="M 507.54057,232.10526 H 494.34759 V 290 h 13.19298 z"/>
		<path d="M 550.4068,232.10526 H 538.19627 L 514.82785,290 h 14.17544 l 4.2807,-11.57895 h 22.03509 L 559.59978,290 h 14.17544 z m 0.42105,34.73685 H 537.77522 L 544.23136,250 h 0.14035 z"/>
		<path d="m 625.11624,231.05263 c -9.33333,0 -18.87719,6.8772 -18.87719,17.68421 0,6.03509 4.07017,11.4386 11.01754,14.8772 6.87719,3.43859 13.05263,5.33333 13.05263,9.54385 0,5.40351 -5.47368,5.68422 -8.35087,5.68422 -6.45614,0 -14.17544,-6.52632 -14.17544,-6.52632 l -6.59649,11.08772 c 0,0 8.21052,7.64912 21.75438,7.64912 11.29825,0 21.82456,-4.8421 21.82456,-18.66666 0,-7.57895 -7.08772,-13.05264 -13.54386,-15.78948 -6.59649,-2.80702 -12.07017,-5.12281 -12.07017,-8.35088 0,-3.15789 2.38596,-5.19298 6.87719,-5.19298 5.96491,0 11.7193,4 11.7193,4 l 5.33333,-10.52631 c 0,0 -7.43859,-5.47369 -17.96491,-5.47369 z"/>
		<path d="m 663.93202,274.98246 c -4.42106,0 -8,3.57894 -8,8.07017 0,4.42105 3.57894,8 8,8 4.49122,0 8.07017,-3.57895 8.07017,-8 0,-4.49123 -3.57895,-8.07017 -8.07017,-8.07017 z"/>
		<path d="m 738.26864,278.07018 c -13.26316,0 -19.08772,-9.26316 -19.08772,-17.05264 0,-7.71929 5.82456,-16.98245 19.08772,-16.98245 6.73684,0 11.36842,3.57895 11.36842,3.57895 l 5.61403,-11.22807 c 0,0 -6.45614,-5.33334 -19.01754,-5.33334 -16.42105,0 -31.36842,13.47369 -31.36842,30.10527 0,16.5614 15.01754,29.89473 31.36842,29.89473 12.5614,0 19.01754,-5.33333 19.01754,-5.33333 l -5.61403,-11.22807 c 0,0 -4.63158,3.57895 -11.36842,3.57895 z"/>
		<path d="m 809.85855,232.10526 h -13.19299 v 33.47369 c 0,9.68421 -2.94736,12.49123 -9.4035,12.49123 -6.45614,0 -9.40351,-2.80702 -9.40351,-12.49123 v -33.47369 h -13.19299 v 37.33334 c 0,14.31579 7.85965,21.61403 22.5965,21.61403 14.73684,0 22.59649,-7.29824 22.59649,-21.61403 z"/>
		<path d="m 870.44737,290 h 13.19298 l -5.19298,-57.89474 h -14.03509 l -12.84211,33.40351 -12.8421,-33.40351 H 824.69298 L 819.5,290 h 13.19298 l 2.73684,-34.31579 h 0.35088 l 11.85965,33.96491 H 855.5 l 11.85965,-33.96491 h 0.35087 z"/>
		<path d="m 941.78507,290 h 13.19299 l -5.19299,-57.89474 h -14.03508 l -12.84211,33.40351 -12.8421,-33.40351 H 896.03069 L 890.83771,290 h 13.19298 l 2.73684,-34.31579 h 0.35088 l 11.85965,33.96491 h 7.85965 l 11.85964,-33.96491 h 0.35088 z"/>
		<path d="M 978.45611,232.10526 H 965.26313 V 290 h 13.19298 z"/>
		<path d="m 1005.1118,254.07018 h 0.1404 L 1028.2697,290 h 13.193 v -57.89474 h -13.193 v 35.92983 h -0.1403 l -23.0176,-35.92983 H 991.91883 V 290 h 13.19297 z"/>
		<path d="m 1074.8586,231.05263 c -9.3334,0 -18.8772,6.8772 -18.8772,17.68421 0,6.03509 4.0701,11.4386 11.0175,14.8772 6.8772,3.43859 13.0526,5.33333 13.0526,9.54385 0,5.40351 -5.4737,5.68422 -8.3508,5.68422 -6.4562,0 -14.1755,-6.52632 -14.1755,-6.52632 l -6.5965,11.08772 c 0,0 8.2106,7.64912 21.7544,7.64912 11.2983,0 21.8246,-4.8421 21.8246,-18.66666 0,-7.57895 -7.0877,-13.05264 -13.5439,-15.78948 -6.5965,-2.80702 -12.0702,-5.12281 -12.0702,-8.35088 0,-3.15789 2.386,-5.19298 6.8772,-5.19298 5.9649,0 11.7193,4 11.7193,4 l 5.3334,-10.52631 c 0,0 -7.4386,-5.47369 -17.9649,-5.47369 z"/>
	</g>
</svg>
